<svg id="visual" viewBox="0 0 900 100" width="900" height="100" xmlns="http://www.w3.org/2000/svg" xmlns:xlink="http://www.w3.org/1999/xlink" version="1.1"><rect x="0" y="0" width="900" height="100" fill="#ffffff"></rect><path d="M0 39L30 37C60 35 120 31 180 34.3C240 37.7 300 48.3 360 54.8C420 61.3 480 63.7 540 65.2C600 66.7 660 67.3 720 67.8C780 68.3 840 68.7 870 68.8L900 69L900 101L870 101C840 101 780 101 720 101C660 101 600 101 540 101C480 101 420 101 360 101C300 101 240 101 180 101C120 101 60 101 30 101L0 101Z" fill="#989898"></path><path d="M0 59L30 60C60 61 120 63 180 63.7C240 64.3 300 63.7 360 63.7C420 63.7 480 64.3 540 61.5C600 58.7 660 52.3 720 51.8C780 51.3 840 56.7 870 59.3L900 62L900 101L870 101C840 101 780 101 720 101C660 101 600 101 540 101C480 101 420 101 360 101C300 101 240 101 180 101C120 101 60 101 30 101L0 101Z" fill="#7b7b7b"></path><path d="M0 84L30 80.8C60 77.7 120 71.3 180 67.2C240 63 300 61 360 63.7C420 66.3 480 73.7 540 74.8C600 76 660 71 720 67C780 63 840 60 870 58.5L900 57L900 101L870 101C840 101 780 101 720 101C660 101 600 101 540 101C480 101 420 101 360 101C300 101 240 101 180 101C120 101 60 101 30 101L0 101Z" fill="#5f5f5f"></path><path d="M0 81L30 82C60 83 120 85 180 86.3C240 87.7 300 88.3 360 88.2C420 88 480 87 540 86.5C600 86 660 86 720 83.2C780 80.3 840 74.7 870 71.8L900 69L900 101L870 101C840 101 780 101 720 101C660 101 600 101 540 101C480 101 420 101 360 101C300 101 240 101 180 101C120 101 60 101 30 101L0 101Z" fill="#444444"></path></svg>